<?xml version="1.0" encoding="utf-8"?>
<!-- Generator: Adobe Illustrator 26.4.1, SVG Export Plug-In . SVG Version: 6.00 Build 0)  -->
<svg version="1.0" id="katman_1" xmlns="http://www.w3.org/2000/svg" xmlns:xlink="http://www.w3.org/1999/xlink" x="0px" y="0px"
	 viewBox="0 0 841.89 595.28" style="enable-background:new 0 0 841.89 595.28;" xml:space="preserve">
<style type="text/css">
	.st0{fill:#111110;}
	.st1{fill-rule:evenodd;clip-rule:evenodd;fill:#FFFFFF;}
</style>
<g>
	<g>
		<path d="M252.27,433.06h16.35c14.09,0,19.46,7.7,19.46,21.16v3.81c0,13.39-3.95,17.34-7.9,19.09c4.14,1.66,9.54,5.6,9.54,19v7.11
			c0,16.22-5.63,24.56-20.31,24.56h-17.14V433.06z M267.6,472.27c7.45,0,9.69-2.91,9.69-12.98v-3.93c0-8.17-2.65-11.71-9.36-11.71
			h-4.61v28.62H267.6z M263.32,517.31h4.84c8.24,0,10.29-4.21,10.29-14.37v-6.41c0-9.7-2.58-13.87-10.88-13.87h-4.25V517.31z"/>
		<path d="M310.05,484.64v43.15h-11.41v-94.73h16.79c12.88,0,19.95,5.93,19.95,22.39v3.91c0,13.84-4.82,18.21-8.66,19.84
			c5.15,2.44,7.85,6.65,7.85,19.43c0,8.03-0.13,23.32,0.8,29.16h-11.05c-1.11-5.8-0.89-21.51-0.89-28.29
			c0-11.85-1.43-14.86-9.39-14.86H310.05z M310.05,474.06h4.08c7.42,0,9.79-3.88,9.79-14.1v-3.66c0-7.88-1.68-12.64-9.58-12.64h-4.3
			V474.06z"/>
		<path d="M375.71,483.43h-18.87v32.69h21.61l-1.48,11.68h-31.54v-94.73h31.34v11.78h-19.92v26.9h18.87V483.43z"/>
		<path d="M394.04,527.79l-11.75-94.73h12.15c2.24,21.54,5.55,56.5,6.22,73.14h0.22c1.63-18.02,6.12-51.68,8.72-73.14h11.28
			c2.69,21.94,7.14,53.29,8.59,72.56h0.29c0.98-17.53,4.34-50.38,6.58-72.56h11.58l-12.71,94.73h-11.88
			c-2.56-21.63-6.7-52.03-8.38-69.92h-0.22c-1.89,18.71-6.19,48.86-8.91,69.92H394.04z"/>
		<path d="M455.58,433.06h17.04c18.19,0,21.71,11.35,21.71,27.87v36.78c0,14.51-2.14,30.08-21.97,30.08h-16.79V433.06z M467,516.91
			h4.6c9.33,0,11.11-6.31,11.11-17.21v-39.95c0-9.65-1.54-15.71-11.13-15.71H467V516.91z"/>
		<path d="M542.5,457.42v45.71c0,17.52-6.6,26-20.29,26c-13.56,0-19.19-9.03-19.19-25.8v-45.97c0-17.28,7.52-25.63,19.93-25.63
			C535.72,431.73,542.5,440.56,542.5,457.42z M514.65,456.39v48.28c0,9.04,2.94,12.97,8.08,12.97c5.49,0,8.14-3.73,8.14-13.28
			v-48.03c0-8.59-2.51-13.02-8.17-13.02C517.38,443.31,514.65,447.41,514.65,456.39z"/>
		<path d="M589.62,527.79h-8.95c-0.31-1.62-0.56-5.5-0.65-7.57c-2.27,6.61-7.16,8.9-12.68,8.9c-12.21,0-16.17-9.91-16.17-25.59
			v-45.71c0-15.5,5.5-26.1,19.36-26.1c16.59,0,18.82,13.38,18.82,24.34v2.79h-11.41v-3.31c0-5.68-0.67-12.24-7.45-12.24
			c-5.26,0-7.69,3.88-7.69,12.8v48.61c0,8.32,2.06,13.12,7.42,13.12c6.58,0,7.95-6.45,7.95-17.18V486.3h-8.29v-10.99h19.74V527.79z"
			/>
	</g>
	<path class="st0" d="M311.91,344.93L311.91,344.93l-0.2-0.25c0,0,0,0,0-0.01c-12.95-16.17-18.08-30.43-18.08-42.56V80l94.01-13.79
		c7.69,7.14,17.99,11.53,29.31,11.53c11.36,0,21.69-4.42,29.39-11.6l93.94,13.78V302.1c0,12.2-5.18,26.54-18.28,42.82l-0.13,0.16
		c-10.24,12.7-24.93,26.11-44.08,39.73l0,0l-0.34,0.24c-16.09,11.41-33.03,21.14-46.1,28.06c-5.73,3.04-10.66,5.51-14.38,7.32
		c-3.72-1.81-8.65-4.29-14.37-7.32c-13.16-6.98-30.25-16.79-46.44-28.3C336.89,371.14,322.16,357.67,311.91,344.93z"/>
	<path class="st1" d="M478.53,259.22c8.31,5.12,27.97,21.4,34.99,29.15c1.72,1.9,0.44,3.35-0.95,2.85
		c-3.29-1.08-7.83-2.84-13.33-4.97c-6.73-2.61-14.88-5.78-23.86-8.9c5.97,3.93,27.77,21.1,36.94,29.5c2.19,2.01,0.41,4.03-1.18,3.46
		c-2.56-0.92-5.82-2.28-9.7-3.89c-18.32-7.6-50.28-20.87-85.58-20.87c-35.04,0-65.95,12.87-84.48,20.58
		c-3.99,1.66-7.41,3.08-10.17,4.09c-1.91,0.7-3.62-1.24-0.79-3.88c7.82-7.3,28.38-24.75,34.49-29c-9.64,3.34-17.7,6.71-24.17,9.43
		c-4.48,1.88-8.2,3.43-11.15,4.44c-1.28,0.44-2.94-0.94-0.85-2.99c0.29-0.28,0.6-0.59,0.93-0.91c7.18-7.08,23.69-23.34,32.59-29.49
		c-3.85-3.47-7.43-7.26-10.72-11.33c-28-34.23-25.57-76.22-23.33-83.12c0.06-0.2,0.18-0.37,0.33-0.49c0.15-0.12,0.34-0.2,0.54-0.21
		c0.19-0.01,0.39,0.04,0.55,0.15c0.17,0.11,0.3,0.27,0.38,0.45c0.01,0.03,0.04,0.14,0.09,0.33c1.14,4.3,12.98,48.75,58.25,62.91
		c35.83,11.21,63.02-4.67,76.01-15.23c0.55-5.27,2.26-15.85,7.59-25.75c0.07-0.15,0.17-0.27,0.3-0.37s0.27-0.15,0.43-0.16
		c0.15-0.01,0.31,0.01,0.45,0.08c0.14,0.07,0.26,0.17,0.35,0.31l3.82,5.35c0,0,0.27-5.68,1.78-10.13c0.04-0.15,0.12-0.29,0.23-0.4
		c0.11-0.11,0.24-0.19,0.38-0.23c0.14-0.04,0.29-0.04,0.43,0c0.14,0.04,0.27,0.11,0.38,0.22c1.78,1.92,3.4,4,4.87,6.2
		c7.26-12.95,15.86-34.99,11.46-66.69c-0.27-2.01,1.86-3.26,3.06-1.48c9.56,14.17,16.27,37.81,12.82,64.57
		c0,0,5.84-15.26,5.71-39.17c-0.01-1.52,1.78-1.9,2.24-0.63C531.81,202.16,494.46,244.96,478.53,259.22z M482.45,206.06
		c0,2.65-2.03,4.81-4.54,4.81c-2.51,0-4.54-2.15-4.54-4.81c0-2.65,2.03-4.81,4.54-4.81C480.42,201.25,482.45,203.41,482.45,206.06z"
		/>
</g>
</svg>
